{"title":"Flying Monkeys 2013 DVDrip Xvid Ac3-MiLLENiUM","uid":8809666,"size":1405349250,"categoryP":"video","categoryS":"movies","magnet":"?xt=urn:btih:2493dd5604cbfebbd799bb364e7370985961bb12&amp;dn=Flying+Monkeys+2013+DVDrip+Xvid+Ac3-MiLLENiUM&amp;tr=udp%3A%2F%2Ftracker.openbittorrent.com%3A80&amp;tr=udp%3A%2F%2Fopen.demonii.com%3A1337&amp;tr=udp%3A%2F%2Ftracker.coppersurfer.tk%3A6969&amp;tr=udp%3A%2F%2Fexodus.desync.com%3A6969","seeders":1,"leechers":1,"uploader":"scenetime55","files":10,"time":1376426651,"description":"\nGeneral &lt;a href=&quot;\nhttp://www.imdb.com/title/tt2205652/&quot; rel=&quot;nofollow&quot; target=&quot;_NEW&quot;&gt;\nhttp://www.imdb.com/title/tt2205652/&lt;/a&gt;\nComplete name                            : Flying Monkeys 2013 DVDrip Xvid Ac3-MiLLENiUM.avi\nSource                                   : DVDR [thanks]\nFormat                                   : AVI\nFormat/Info                              : Audio Video Interleave\nFile size                                : 1.28 GiB\nDuration                                 : 1h 25mn\nOverall bit rate                         : 2 151 Kbps\nWriting application                      : VirtualDubMod 1.5.10.2 (build 2540/release)\nWriting library                          : VirtualDubMod build 2540/release\n\nVideo\nID                                       : 0\nFormat                                   : MPEG-4 Visual\nFormat profile                           : Advanced Simple@L5\nFormat settings, BVOP                    : 2\nFormat settings, QPel                    : No\nFormat settings, GMC                     : No warppoints\nFormat settings, Matrix                  : Default (H.263)\nMuxing mode                              : Packed bitstream\nCodec ID                                 : XVID\nCodec ID/Hint                            : XviD\nDuration                                 : 1h 25mn\nBit rate                                 : 1 694 Kbps\nWidth                                    : 720 pixels\nHeight                                   : 384 pixels\nDisplay aspect ratio                     : 1.875\nFrame rate                               : 23.976 fps\nColor space                              : YUV\nChroma subsampling                       : 4:2:0\nBit depth                                : 8 bits\nScan type                                : Progressive\nCompression mode                         : Lossy\nBits/(Pixel*Frame)                       : 0.256\nStream size                              : 1.01 GiB (79%)\nWriting library                          : XviD 64\n\nAudio\nID                                       : 1\nFormat                                   : AC-3\nFormat/Info                              : Audio Coding 3\nMode extension                           : CM (complete main)\nCodec ID                                 : 2000\nDuration                                 : 1h 25mn\nBit rate mode                            : Constant\nBit rate                                 : 448 Kbps\nChannel(s)                               : 6 channels\nChannel positions                        : Front: L C R, Side: L R, LFE\nSampling rate                            : 48.0 KHz\nBit depth                                : 16 bits\nCompression mode                         : Lossy\nDelay relative to video                  : 500ms\nStream size                              : 273 MiB (21%)\nAlignment                                : Split accross interleaves\nInterleave, duration                     : 42 ms (1.00 video frame)\nInterleave, preload duration             : 500 ms\n","torrent":{"xt":"urn:btih:2493dd5604cbfebbd799bb364e7370985961bb12","amp;dn":"Flying+Monkeys+2013+DVDrip+Xvid+Ac3-MiLLENiUM","amp;tr":["udp%3A%2F%2Ftracker.openbittorrent.com%3A80","udp%3A%2F%2Fopen.demonii.com%3A1337","udp%3A%2F%2Ftracker.coppersurfer.tk%3A6969","udp%3A%2F%2Fexodus.desync.com%3A6969"],"infoHash":"2493dd5604cbfebbd799bb364e7370985961bb12","infoHashBuffer":{"type":"Buffer","data":[36,147,221,86,4,203,254,187,215,153,187,54,78,115,112,152,89,97,187,18]},"announce":[],"urlList":[]}}